<svg width="22" height="20" viewBox="0 0 22 20" fill="none" xmlns="http://www.w3.org/2000/svg">
<path fill-rule="evenodd" clip-rule="evenodd" d="M4.43477 12.6136C4.19069 12.8577 4.19069 13.2534 4.43477 13.4975C4.67884 13.7416 5.07457 13.7416 5.31865 13.4975L10.9878 7.82835L16.657 13.4975C16.901 13.7416 17.2968 13.7416 17.5408 13.4975C17.7849 13.2534 17.7849 12.8577 17.5408 12.6136L11.4337 6.50646C11.4324 6.50513 11.4311 6.50382 11.4298 6.5025C11.3077 6.38047 11.1478 6.31945 10.9878 6.31945C10.9658 6.31945 10.9438 6.3206 10.9219 6.32291C10.7846 6.33739 10.6511 6.39725 10.5458 6.5025C10.5445 6.50382 10.5432 6.50513 10.5419 6.50646L4.43477 12.6136Z" fill="black" fill-opacity="0.4"/>
</svg>
