<svg width="24" height="24" viewBox="0 0 24 24" fill="none" xmlns="http://www.w3.org/2000/svg">
<g opacity="0.5" clip-path="url(#clip0_1_6832)">
<path d="M16.9268 13H13.7393C13.1549 13 12.6768 13.45 12.6768 14V17C12.6768 17.55 13.1549 18 13.7393 18H16.9268C17.5111 18 17.9893 17.55 17.9893 17V14C17.9893 13.45 17.5111 13 16.9268 13ZM16.9268 3V4H8.42676V3C8.42676 2.45 7.94863 2 7.36426 2C6.77988 2 6.30176 2.45 6.30176 3V4H5.23926C4.05988 4 3.12488 4.9 3.12488 6L3.11426 20C3.11426 21.1 4.05988 22 5.23926 22H20.1143C21.283 22 22.2393 21.1 22.2393 20V6C22.2393 4.9 21.283 4 20.1143 4H19.0518V3C19.0518 2.45 18.5736 2 17.9893 2C17.4049 2 16.9268 2.45 16.9268 3ZM19.0518 20H6.30176C5.71738 20 5.23926 19.55 5.23926 19V9H20.1143V19C20.1143 19.55 19.6361 20 19.0518 20Z" fill="black"/>
</g>
<defs>
<clipPath id="clip0_1_6832">
<rect width="23.0769" height="24" fill="white" transform="translate(0.614258)"/>
</clipPath>
</defs>
</svg>
