<svg width="23" height="23" viewBox="0 0 23 23" fill="none" xmlns="http://www.w3.org/2000/svg">
<circle cx="11.3027" cy="11.3027" r="11.3027" fill="#776EA5"/>
<g clip-path="url(#clip0_493_288)">
<path d="M15.8876 12.4248L14.3377 12.2633C13.9654 12.2244 13.5993 12.3413 13.3369 12.5807L12.2141 13.6049C10.4873 12.8033 9.07158 11.5174 8.19288 9.93643L9.32176 8.90657C9.58415 8.6672 9.71229 8.3332 9.66958 7.99362L9.49262 6.59079C9.41939 6.02854 8.90072 5.60547 8.27831 5.60547H7.22265C6.53312 5.60547 5.95953 6.12875 6.00224 6.75779C6.32565 11.5118 10.4934 15.3084 15.6984 15.6034C16.3879 15.6424 16.9615 15.1191 16.9615 14.4901V13.527C16.9676 12.9648 16.5039 12.4916 15.8876 12.4248Z" fill="white"/>
</g>
<defs>
<clipPath id="clip0_493_288">
<rect width="19.2726" height="17.582" fill="white" transform="translate(1.25586 2.51172)"/>
</clipPath>
</defs>
</svg>
