<svg width="25" height="24" viewBox="0 0 25 24" fill="none" xmlns="http://www.w3.org/2000/svg">
<g clip-path="url(#clip0_169_380)">
<path d="M18.5507 5.7107C18.1607 5.3207 17.5307 5.3207 17.1407 5.7107L12.2507 10.5907L7.3607 5.7007C6.9707 5.3107 6.3407 5.3107 5.9507 5.7007C5.5607 6.0907 5.5607 6.7207 5.9507 7.1107L10.8407 12.0007L5.9507 16.8907C5.5607 17.2807 5.5607 17.9107 5.9507 18.3007C6.3407 18.6907 6.9707 18.6907 7.3607 18.3007L12.2507 13.4107L17.1407 18.3007C17.5307 18.6907 18.1607 18.6907 18.5507 18.3007C18.9407 17.9107 18.9407 17.2807 18.5507 16.8907L13.6607 12.0007L18.5507 7.1107C18.9307 6.7307 18.9307 6.0907 18.5507 5.7107Z" fill="black"/>
</g>
<defs>
<clipPath id="clip0_169_380">
<rect width="24" height="24" fill="white" transform="translate(0.25)"/>
</clipPath>
</defs>
</svg>
