<svg width="10" height="10" viewBox="0 0 10 10" fill="none" xmlns="http://www.w3.org/2000/svg">
<circle cx="5" cy="5" r="5" fill="#776EA5"/>
<mask id="mask0_493_303" style="mask-type:alpha" maskUnits="userSpaceOnUse" x="2" y="2" width="6" height="6">
<rect x="2" y="2" width="6" height="6" fill="#D9D9D9"/>
</mask>
<g mask="url(#mask0_493_303)">
<path d="M4.99976 7.33122C4.94142 7.33122 4.88309 7.3208 4.82476 7.29997C4.76642 7.27914 4.71434 7.24789 4.66851 7.20622C4.39767 6.95622 4.15809 6.71247 3.94976 6.47497C3.74142 6.23747 3.56746 6.00726 3.42788 5.78434C3.2883 5.56143 3.18205 5.34684 3.10913 5.14059C3.03621 4.93434 2.99976 4.73747 2.99976 4.54997C2.99976 3.92497 3.2008 3.42705 3.60288 3.05622C4.00496 2.68539 4.47059 2.49997 4.99976 2.49997C5.52892 2.49997 5.99455 2.68539 6.39663 3.05622C6.79871 3.42705 6.99976 3.92497 6.99976 4.54997C6.99976 4.73747 6.9633 4.93434 6.89038 5.14059C6.81746 5.34684 6.71121 5.56143 6.57163 5.78434C6.43205 6.00726 6.25809 6.23747 6.04976 6.47497C5.84142 6.71247 5.60184 6.95622 5.33101 7.20622C5.28517 7.24789 5.23309 7.27914 5.17476 7.29997C5.11642 7.3208 5.05809 7.33122 4.99976 7.33122ZM4.99976 4.99997C5.13726 4.99997 5.25496 4.95101 5.35288 4.85309C5.4508 4.75518 5.49976 4.63747 5.49976 4.49997C5.49976 4.36247 5.4508 4.24476 5.35288 4.14684C5.25496 4.04893 5.13726 3.99997 4.99976 3.99997C4.86226 3.99997 4.74455 4.04893 4.64663 4.14684C4.54871 4.24476 4.49976 4.36247 4.49976 4.49997C4.49976 4.63747 4.54871 4.75518 4.64663 4.85309C4.74455 4.95101 4.86226 4.99997 4.99976 4.99997Z" fill="white"/>
</g>
</svg>
