<svg width="16" height="16" viewBox="0 0 16 16" fill="none" xmlns="http://www.w3.org/2000/svg">
<path d="M0.928589 6.29744C0.928589 9.61216 3.62557 12.3091 6.94031 12.3091C8.25112 12.3091 9.44895 11.8873 10.4359 11.1791L14.1423 14.8932C14.3156 15.0664 14.5416 15.1493 14.7827 15.1493C15.295 15.1493 15.649 14.765 15.649 14.2603C15.649 14.0193 15.5586 13.8008 15.4004 13.6426L11.7165 9.9361C12.4925 8.92662 12.952 7.66855 12.952 6.29744C12.952 2.98271 10.255 0.285721 6.94031 0.285721C3.62557 0.285721 0.928589 2.98271 0.928589 6.29744ZM2.21682 6.29744C2.21682 3.69086 4.33373 1.57395 6.94031 1.57395C9.54686 1.57395 11.6638 3.69086 11.6638 6.29744C11.6638 8.90399 9.54686 11.0209 6.94031 11.0209C4.33373 11.0209 2.21682 8.90399 2.21682 6.29744Z" fill="#7D7D7D"/>
</svg>
