<svg width="24" height="20" viewBox="0 0 24 20" fill="none" xmlns="http://www.w3.org/2000/svg">
<g clip-path="url(#clip0_1_6841)">
<path d="M12.1271 6.16667C12.1271 5.85725 12.25 5.5605 12.4688 5.34171C12.6876 5.12292 12.9844 5 13.2938 5C13.6032 5 13.8999 5.12292 14.1187 5.34171C14.3375 5.5605 14.4604 5.85725 14.4604 6.16667V10.8333C14.4604 11.1428 14.3375 11.4395 14.1187 11.6583C13.8999 11.8771 13.6032 12 13.2938 12H8.62712C8.3177 12 8.02095 11.8771 7.80216 11.6583C7.58337 11.4395 7.46045 11.1428 7.46045 10.8333C7.46045 10.5239 7.58337 10.2272 7.80216 10.0084C8.02095 9.78958 8.3177 9.66667 8.62712 9.66667H12.1271V6.16667Z" fill="#808080"/>
<path fill-rule="evenodd" clip-rule="evenodd" d="M22.4603 10.0002C22.4603 15.5232 17.9833 20.0002 12.4603 20.0002C6.93733 20.0002 2.46033 15.5232 2.46033 10.0002C2.46033 4.47718 6.93733 0.000183105 12.4603 0.000183105C17.9833 0.000183105 22.4603 4.47718 22.4603 10.0002ZM20.4603 10.0002C20.4603 12.1219 19.6175 14.1567 18.1172 15.657C16.6169 17.1573 14.5821 18.0002 12.4603 18.0002C10.3386 18.0002 8.30376 17.1573 6.80347 15.657C5.30318 14.1567 4.46033 12.1219 4.46033 10.0002C4.46033 7.87845 5.30318 5.84362 6.80347 4.34333C8.30376 2.84304 10.3386 2.00018 12.4603 2.00018C14.5821 2.00018 16.6169 2.84304 18.1172 4.34333C19.6175 5.84362 20.4603 7.87845 20.4603 10.0002Z" fill="#808080"/>
</g>
<defs>
<clipPath id="clip0_1_6841">
<rect width="23.0769" height="20" fill="white" transform="translate(0.460449)"/>
</clipPath>
</defs>
</svg>
